PathFileType	4	(X/Y/Z)	Walk6.trc
DataRate	CameraRate	NumFrames	NumMarkers	Units	OrigDataRate	OrigDataStartFrame	OrigNumFrames
200.000000	200.000000	4	59	mm	200.000000	299	600
Frame#	Times		LFHD		RFHD		CLAV		STRN		LASI		RASI		RACR1		RUA1		RElbow		RFA1		RWRR		RWRU		RCAR		LACR1		LUA1		LElbow		LFA1		LWRR		RTH2		RTB1		RTB2		LTH1		LTH3		LTH2		LTH4		LMFC		LTB1		LTB2		LTB4		LMT1		LLFC		LCAR		LTB3		LWRU		RTB4		RTB3		RTH3		RMFC		RMMAL		RTH4		RLFC		RMT1		RToe		RTH1		LBHD		RElbowM		RCAL		LMT5		LToe		RBack		RPSI		C7		T10		LPSI		LMMAL		LLMAL		LCAL		LElbowM		RBHD
			X1	Y1	Z1	X2	Y2	Z2	X3	Y3	Z3	X4	Y4	Z4	X5	Y5	Z5	X6	Y6	Z6	X7	Y7	Z7	X8	Y8	Z8	X9	Y9	Z9	X10	Y10	Z10	X11	Y11	Z11	X12	Y12	Z12	X13	Y13	Z13	X14	Y14	Z14	X15	Y15	Z15	X16	Y16	Z16	X17	Y17	Z17	X18	Y18	Z18	X19	Y19	Z19	X20	Y20	Z20	X21	Y21	Z21	X22	Y22	Z22	X23	Y23	Z23	X24	Y24	Z24	X25	Y25	Z25	X26	Y26	Z26	X27	Y27	Z27	X28	Y28	Z28	X29	Y29	Z29	X30	Y30	Z30	X31	Y31	Z31	X32	Y32	Z32	X33	Y33	Z33	X34	Y34	Z34	X35	Y35	Z35	X36	Y36	Z36	X37	Y37	Z37	X38	Y38	Z38	X39	Y39	Z39	X40	Y40	Z40	X41	Y41	Z41	X42	Y42	Z42	X43	Y43	Z43	X44	Y44	Z44	X45	Y45	Z45	X46	Y46	Z46	X47	Y47	Z47	X48	Y48	Z48	X49	Y49	Z49	X50	Y50	Z50	X51	Y51	Z51	X52	Y52	Z52	X53	Y53	Z53	X54	Y54	Z54	X55	Y55	Z55	X56	Y56	Z56	X57	Y57	Z57	X58	Y58	Z58	X59	Y59	Z59

299	1.495	-279.92	1653.2	-44.279	-280.2	1666.3	54.542	-261.27	1403.7	37.139	-187.43	1249.5	49.109	-294.78	976.28	-120.08	-306.82	988.62	235	-380.8	1496.8	200.26	-383.82	1337.1	330.34	-352.83	1195.4	388.87	-288.59	1057.1	404.03	-244.3	947.24	332.86	-248.32	950.12	414.67	-199.23	875.24	379.52	-375.5	1456.5	-145.66	-429.13	1285.5	-223.41	-467.89	1124.5	-264.61	-457.79	983.98	-275.21	-407.51	858.79	-220.11	-338.05	686.63	267.73	-445.11	362.41	203.25	-532.74	331.74	252.4	-316.06	758.36	-138.21	-268.75	596.74	-107.86	-238.22	696.46	-107.89	-293.8	678.06	-122.57	-247.48	513.07	53.2	-191.43	397.51	-36.384	-224.5	304.19	-69.327	-195.33	315.59	-15.473	-136.55	37.46	18.436	-268.96	512.21	-103.55	-406.88	772.11	-254.53	-207.34	230.65	2.7969	-461.64	844.24	-269.08	-519.94	318.69	194.13	-593.67	274.83	184.74	-383.97	593.16	279.48	-396.8	480.21	120.51	-725.58	228.97	125.7	-394.06	678.54	281.61	-411.1	490.53	276.14	-715.43	86.347	140.54	-693.72	45.623	179.27	-405.7	764.61	282.97	-422.55	1562.4	-45.591	-398.67	1111.7	301.27	-805.93	283.77	160.71	-204.11	25.966	-58.049	-88.496	36.68	-18.635	-519.49	1367.1	157.13	-562.16	1019.6	80.346	-460.14	1476.5	30.777	-518.62	1160.1	46.981	-545.29	1027	-3.9705	-270.3	84.713	91.453	-299.39	73.587	6.899	-347.02	46.453	66.36	-524.32	1076.9	-161.92	-409.03	1586.6	98.299
300	1.5	-273.48	1654.4	-44.597	-273.71	1667.4	54.231	-255.07	1404.8	36.571	-181.29	1250.6	48.198	-289.13	977.3	-120.99	-300.55	989.98	234.46	-374.45	1497.8	199.9	-378.06	1338	329.79	-347.35	1196	388.19	-284.25	1057	403.64	-240.98	946.56	332.8	-245	949.72	414.6	-196.71	874.19	379.67	-369.33	1457.9	-146.17	-421.99	1286.5	-224.09	-459.59	1125.2	-265.44	-448.22	984.83	-276.07	-396.44	860.26	-221.2	-327.18	688.87	267.51	-431.09	364.2	203.46	-518.66	333.35	252.67	-311.67	758.8	-138.64	-265.7	596.81	-108.16	-234.34	696.24	-108.19	-290.07	678.35	-122.94	-245.48	512.89	53.006	-189.78	397.06	-36.498	-223.23	303.86	-69.424	-194.07	315.18	-15.547	-136.44	37.458	18.4	-266.59	512.2	-103.73	-394.63	773.81	-255.84	-206.48	230.3	2.7644	-450.59	845.09	-269.93	-505.86	320.36	194.37	-579.52	276.38	184.98	-371.79	594.79	279.56	-383.67	481.79	120.71	-711.35	230.16	126.07	-383.05	680.03	281.55	-397.59	492.23	276.38	-699.59	87.841	142.02	-677.61	47.635	180.83	-395.86	765.95	282.74	-416.25	1563.8	-45.978	-393.72	1112.5	300.69	-792.32	284.41	160.91	-204.11	25.958	-58.104	-88.221	36.207	-18.776	-513.28	1368.2	156.47	-555.84	1020.6	79.93	-453.89	1477.7	30.399	-512.43	1161.3	46.422	-539.34	1028.3	-4.2983	-270.1	84.691	91.5	-299.2	73.636	6.9392	-346.95	46.591	66.399	-515.68	1077.1	-162.71	-402.65	1587.8	97.931
301	1.505	-267.06	1655.5	-44.891	-267.24	1668.4	53.943	-248.9	1406	36.023	-175.17	1251.6	47.315	-283.49	978.34	-121.87	-294.32	991.34	234.01	-368.13	1498.8	199.56	-372.31	1338.9	329.26	-341.93	1196.6	387.52	-279.97	1057	403.27	-237.71	945.87	332.78	-241.73	949.32	414.56	-194.22	873.16	379.88	-363.19	1459.2	-146.66	-414.87	1287.5	-224.76	-451.26	1125.9	-266.27	-438.59	985.69	-276.93	-385.33	861.75	-222.28	-316.36	691.18	267.3	-417	366	203.67	-504.48	334.9	252.91	-307.36	759.21	-139.08	-262.74	596.87	-108.46	-230.55	696.01	-108.52	-286.41	678.63	-123.33	-243.51	512.72	52.795	-188.19	396.61	-36.637	-222.02	303.53	-69.538	-192.86	314.77	-15.646	-136.35	37.458	18.356	-264.3	512.19	-103.93	-382.35	775.52	-257.09	-205.65	229.96	2.7084	-439.46	845.95	-270.79	-491.65	321.94	194.62	-565.16	277.73	185.22	-359.68	596.51	279.6	-370.57	483.43	120.88	-696.83	230.99	126.36	-372.1	681.61	281.47	-384.17	494.01	276.58	-683.24	89.05	143.36	-660.87	49.488	182.22	-386.08	767.35	282.51	-409.98	1565.1	-46.34	-388.81	1113.3	300.13	-778.51	284.55	161.05	-204.11	25.946	-58.163	-87.957	35.749	-18.935	-507.11	1369.3	155.83	-549.54	1021.6	79.535	-447.66	1478.8	30.045	-506.25	1162.5	45.879	-533.43	1029.5	-4.5928	-269.9	84.676	91.539	-299.03	73.687	6.9745	-346.87	46.735	66.443	-507.03	1077.2	-163.52	-396.28	1589	97.592
302	1.51	-260.66	1656.6	-45.163	-260.79	1669.4	53.676	-242.75	1407.1	35.497	-169.07	1252.6	46.46	-277.86	979.4	-122.71	-288.1	992.68	233.64	-361.84	1499.7	199.25	-366.57	1339.7	328.75	-336.56	1197.1	386.86	-275.76	1056.9	402.93	-234.48	945.19	332.78	-238.52	948.92	414.55	-191.76	872.17	380.13	-357.09	1460.5	-147.15	-407.78	1288.4	-225.42	-442.91	1126.6	-267.1	-428.92	986.54	-277.8	-374.18	863.26	-223.35	-305.62	693.56	267.11	-402.84	367.8	203.87	-490.23	336.36	253.12	-303.12	759.61	-139.53	-259.86	596.92	-108.78	-226.83	695.76	-108.89	-282.82	678.91	-123.74	-241.56	512.56	52.568	-186.65	396.17	-36.802	-220.86	303.21	-69.67	-191.69	314.36	-15.769	-136.26	37.459	18.302	-262.09	512.17	-104.13	-370.05	777.24	-258.3	-204.86	229.63	2.6295	-428.27	846.82	-271.67	-477.32	323.41	194.86	-550.61	278.87	185.44	-347.65	598.33	279.61	-357.49	485.13	121.02	-682.03	231.45	126.59	-361.22	683.26	281.37	-370.83	495.86	276.73	-666.4	89.972	144.58	-643.52	51.168	183.45	-376.36	768.8	282.25	-403.73	1566.5	-46.68	-383.95	1114.1	299.57	-764.52	284.16	161.13	-204.12	25.93	-58.227	-87.704	35.302	-19.112	-500.95	1370.3	155.2	-543.26	1022.6	79.165	-441.45	1480	29.712	-500.08	1163.6	45.35	-527.54	1030.7	-4.8566	-269.71	84.671	91.57	-298.86	73.742	7.0052	-346.8	46.883	66.49	-498.35	1077.3	-164.33	-389.94	1590.2	97.282
